PathFileType	4	(X/Y/Z)	/Users/itak/Documents/Research/Walk-IL/dataset/trc/00095_00006.trc
DataRate	CameraRate	NumFrames	NumMarkers	Units	OrigDataRate	OrigDataStartFrame	OrigNumFrames
100.000000	100.000000	4	53	mm	100.000000	333	534
Frame#	Time	RPSI			LPSI			L3			STRN			T10			C7			CLAV			RBAK			LBAK			LSHO			LUPA			LAEL			LAOL			LWTS			LWPS			LFRA			LIFD			LHPS			LHTS			RSHO			RUPA			RAEL			RAOL			RWTS			RWPS			RFRA			RIFD			RHTS			RHPS			RBHD			LFHD			RFHD			LBHD			LHIP			RHIP			RASI			LASI			LKNE			LTHI			LANK			LTIP			LTOE			LMT1			LMT5			LHEE			RKNE			RTHI			RANK			RTIP			RTOE			RMT1			RMT5			RHEE			
		X1	Y1	Z1	X2	Y2	Z2	X3	Y3	Z3	X4	Y4	Z4	X5	Y5	Z5	X6	Y6	Z6	X7	Y7	Z7	X8	Y8	Z8	X9	Y9	Z9	X10	Y10	Z10	X11	Y11	Z11	X12	Y12	Z12	X13	Y13	Z13	X14	Y14	Z14	X15	Y15	Z15	X16	Y16	Z16	X17	Y17	Z17	X18	Y18	Z18	X19	Y19	Z19	X20	Y20	Z20	X21	Y21	Z21	X22	Y22	Z22	X23	Y23	Z23	X24	Y24	Z24	X25	Y25	Z25	X26	Y26	Z26	X27	Y27	Z27	X28	Y28	Z28	X29	Y29	Z29	X30	Y30	Z30	X31	Y31	Z31	X32	Y32	Z32	X33	Y33	Z33	X34	Y34	Z34	X35	Y35	Z35	X36	Y36	Z36	X37	Y37	Z37	X38	Y38	Z38	X39	Y39	Z39	X40	Y40	Z40	X41	Y41	Z41	X42	Y42	Z42	X43	Y43	Z43	X44	Y44	Z44	X45	Y45	Z45	X46	Y46	Z46	X47	Y47	Z47	X48	Y48	Z48	X49	Y49	Z49	X50	Y50	Z50	X51	Y51	Z51	X52	Y52	Z52	X53	Y53	Z53	

334	3.33	-352.7398681640625	1012.063842773438	424.6354675292969	-232.8051452636719	1007.801940917969	304.3442993164062	-287.9920349121094	1072.549926757812	353.1798706054688	-131.1026000976562	1267.791137695312	556.9979248046875	-276.5912475585938	1200.355224609375	331.2294311523438	-238.9483795166016	1467.19775390625	377.3016662597656	-147.7169036865234	1382.05419921875	530.8004150390625	-335.7166442871094	1329.753784179688	363.9129943847656	-162.1315460205078	1429.7685546875	304.7603149414062	-49.59449005126953	1436.60791015625	356.9505004882812	19.69925117492676	1313.520263671875	312.5518798828125	90.46631622314453	1112.324462890625	348.0848693847656	-9.399938583374023	1073.836669921875	340.9651794433594	121.54248046875	926.4552612304688	531.6831665039062	148.9029235839844	891.736328125	459.5727233886719	126.9562530517578	1017.122985839844	394.9017639160156	143.5447540283203	763.7709350585938	616.7459716796875	175.2788696289062	832.0499267578125	516.9170532226562	150.9474487304688	861.0113525390625	577.1976318359375	-353.9483947753906	1431.177856445312	524.8555908203125	-416.7118835449219	1365.172973632812	543.3914184570312	-483.0803527832031	1112.910888671875	510.287841796875	-391.2055969238281	1078.39501953125	487.1379699707031	-442.6387634277344	840.6273193359375	603.4761962890625	-516.99169921875	846.1676635742188	559.1329956054688	-497.1081237792969	1036.05859375	519.3970336914062	-461.3367309570312	654.9954223632812	581.13671875	-451.8105163574219	739.2459716796875	615.0512084960938	-523.3687744140625	752.9872436523438	585.902099609375	-271.7790832519531	1625.2158203125	421.6768188476562	-119.533203125	1693.75341796875	568.3163452148438	-242.4280242919922	1673.841552734375	583.830322265625	-139.3102874755859	1653.153442382812	395.1846313476562	-94.30271911621094	946.4450073242188	317.9798278808594	-368.805419921875	945.3248901367188	529.0439453125	-268.8569946289062	965.9379272460938	604.58447265625	-60.56657409667969	954.9414672851562	437.2790832519531	-130.4415893554688	482.1600952148438	386.8779602050781	-108.0165863037109	623.7354125976562	349.1105651855469	-265.5241088867188	45.95981216430664	238.7862854003906	-192.5339202880859	253.9374847412109	296.9450073242188	-133.7967071533203	40.92986679077148	398.261474609375	-205.8140563964844	44.00496292114258	396.1129150390625	-169.6387176513672	33.12381744384766	288.7875671386719	-356.3866271972656	55.65898132324219	250.8489074707031	-208.7707672119141	518.9220581054688	661.3795776367188	-298.0377197265625	777.3905639648438	624.277099609375	-129.6012725830078	36.72317504882812	678.0258178710938	-195.4391479492188	397.0975036621094	668.9158935546875	-13.64136028289795	120.8412704467773	833.0299682617188	-2.491712808609009	99.83222198486328	768.0797729492188	-97.08855438232422	79.02716827392578	786.4330444335938	-99.86367797851562	32.00067520141602	612.2826538085938	
335	3.34	-347.5638427734375	1010.574768066406	430.42333984375	-226.94189453125	1006.592224121094	310.8800964355469	-282.2875366210938	1071.080688476562	359.5448608398438	-127.0104446411133	1266.400390625	564.1592407226562	-271.0796813964844	1198.902465820312	337.4831237792969	-234.1112670898438	1465.793334960938	383.9639282226562	-143.6531982421875	1380.653442382812	537.96630859375	-330.6228942871094	1328.156127929688	369.9049377441406	-156.7619781494141	1428.613525390625	311.7306518554688	-44.53109359741211	1435.363403320312	364.7397766113281	24.87473297119141	1312.202758789062	320.8840942382812	95.371337890625	1111.0673828125	356.6168518066406	-4.476555824279785	1072.587524414062	349.257080078125	126.17431640625	925.0709228515625	540.0778198242188	153.5623474121094	890.3643798828125	467.9973449707031	131.780517578125	1015.847351074219	403.4153747558594	148.0764923095703	762.4024047851562	625.1420288085938	179.8627624511719	830.6651000976562	525.3200073242188	155.6239929199219	859.6823120117188	585.5317993164062	-349.9766540527344	1429.356323242188	530.8218383789062	-412.6625671386719	1363.119018554688	548.9779663085938	-477.9599609375	1110.602294921875	515.3719482421875	-385.8500366210938	1076.429931640625	492.5386962890625	-437.4076232910156	838.0821533203125	608.2098999023438	-511.5751953125	843.8428344726562	563.6078491210938	-491.772705078125	1033.788818359375	524.2960205078125	-455.7279968261719	652.6697387695312	585.1285400390625	-446.4841003417969	736.8687133789062	619.2730102539062	-517.9235229492188	750.5518188476562	590.0396728515625	-267.480712890625	1623.648559570312	428.0412902832031	-115.748893737793	1692.613891601562	574.9822998046875	-238.6619262695312	1672.708740234375	590.1609497070312	-134.9342956542969	1651.57421875	401.8939819335938	-88.53886413574219	945.2177124023438	325.1134338378906	-363.9487609863281	943.7861938476562	534.8497314453125	-264.4674682617188	964.5429077148438	610.9707641601562	-55.38388824462891	953.5886840820312	444.6363525390625	-127.44677734375	480.8958129882812	391.1412963867188	-104.0170364379883	622.6021728515625	354.3962097167969	-265.3137512207031	46.62427520751953	238.9470977783203	-190.94189453125	253.7386322021484	298.8877563476562	-133.7866058349609	40.88364791870117	398.3309936523438	-205.6870269775391	43.95791625976562	396.1341552734375	-169.5519866943359	33.16367340087891	288.8489685058594	-356.1469116210938	56.85846328735352	250.8735656738281	-204.2187194824219	517.2763061523438	666.0055541992188	-293.6322937011719	775.5776977539062	629.6514892578125	-122.4559707641602	36.09347915649414	685.90576171875	-190.4195098876953	395.7154846191406	674.192138671875	-7.900015830993652	120.6102066040039	841.7149047851562	3.829035043716431	99.6021728515625	776.8197631835938	-90.87397003173828	78.49060821533203	794.4390258789062	-92.26969909667969	31.40828132629395	620.3488159179688	
336	3.35	-342.5547790527344	1009.171508789062	436.2151489257812	-221.0332336425781	1005.443725585938	317.5656433105469	-276.4270324707031	1069.617919921875	366.1020202636719	-122.9336013793945	1265.065673828125	571.4695434570312	-265.5411682128906	1197.48193359375	343.8857421875	-229.3317108154297	1464.441040039062	390.7500915527344	-139.6263427734375	1379.312622070312	545.266845703125	-325.5582580566406	1326.585571289062	376.0277709960938	-151.4762573242188	1427.46923828125	318.8359069824219	-39.52034378051758	1434.15185546875	372.6510314941406	29.97081565856934	1310.907348632812	329.2589416503906	100.0519943237305	1109.756591796875	365.0379638671875	0.2035729736089706	1071.359375	357.4592895507812	130.5426330566406	923.4718017578125	548.1964111328125	157.9029235839844	888.8136596679688	476.1001281738281	136.3401031494141	1014.458435058594	411.7257995605469	152.2856140136719	760.7443237304688	633.12646484375	184.1182250976562	829.0440063476562	533.3472290039062	160.0433807373047	858.1011352539062	593.5454711914062	-346.0586242675781	1427.566284179688	536.8939819335938	-408.6460571289062	1361.077880859375	554.6937255859375	-472.793212890625	1108.264770507812	520.6776123046875	-380.4705810546875	1074.4794921875	498.1275329589844	-431.8938903808594	835.5452880859375	613.17822265625	-505.9660949707031	841.4917602539062	568.3969116210938	-486.3417053222656	1031.488891601562	529.4467163085938	-449.855224609375	650.3536987304688	589.4719848632812	-440.9027709960938	734.5004272460938	623.8529052734375	-512.2033081054688	748.0980224609375	594.5502319335938	-263.2396850585938	1622.126831054688	434.5015563964844	-112.0081100463867	1691.546264648438	581.7205200195312	-234.9358215332031	1671.64306640625	596.5758056640625	-130.6161041259766	1650.044311523438	408.6894226074219	-82.77522277832031	944.0088500976562	332.3822326660156	-359.1327209472656	942.3497314453125	540.737060546875	-260.1235046386719	963.1849365234375	617.474853515625	-50.18125534057617	952.2623901367188	452.1348571777344	-124.4211959838867	479.6732482910156	395.5709838867188	-99.95661163330078	621.519287109375	359.8151245117188	-265.0470275878906	47.46047592163086	239.0994720458984	-189.3131866455078	253.6398315429688	300.8858642578125	-133.7725677490234	40.84148025512695	398.3887634277344	-205.5373992919922	43.91604995727539	396.1461791992188	-169.4263916015625	33.22938919067383	288.9209289550781	-355.8558654785156	58.28071212768555	250.8804626464844	-199.5024871826172	515.8595581054688	671.0264892578125	-289.02490234375	773.9893798828125	635.2515869140625	-116.5706481933594	35.47861862182617	692.2380981445312	-185.5096893310547	394.3204040527344	679.5498046875	-2.935082197189331	119.1015243530273	849.1070556640625	9.263516426086426	98.35073089599609	784.1875610351562	-85.61547088623047	77.24375152587891	801.0601806640625	-85.98851776123047	31.01376724243164	626.8270874023438	
337	3.36	-337.7052001953125	1007.904174804688	442.0270690917969	-215.0936126708984	1004.378845214844	324.3900756835938	-270.4166870117188	1068.178344726562	372.8522644042969	-118.8753128051758	1263.814819335938	578.9278564453125	-259.9806213378906	1196.11767578125	350.4349670410156	-224.6097106933594	1463.170776367188	397.656494140625	-135.6343688964844	1378.0615234375	552.7017822265625	-320.5212707519531	1325.069091796875	382.2760314941406	-146.2759704589844	1426.36279296875	326.0791015625	-34.5643196105957	1433.000244140625	380.6800231933594	34.98249053955078	1309.655151367188	337.6714782714844	104.5125274658203	1108.4130859375	373.3429260253906	4.644351005554199	1070.1708984375	365.5650329589844	134.6448822021484	921.672607421875	556.02783203125	161.9253082275391	887.101806640625	483.8683776855469	140.6364288330078	1012.974182128906	419.8232421875	156.1697387695312	758.80615234375	640.6820678710938	188.0510711669922	827.200439453125	540.988525390625	164.1835174560547	856.2703247070312	601.2299194335938	-342.1991271972656	1425.830810546875	543.0645141601562	-404.6619873046875	1359.070678710938	560.532470703125	-467.5689086914062	1105.919921875	526.1980590820312	-375.0270385742188	1072.563232421875	503.9290161132812	-426.1450500488281	833.025634765625	618.3743286132812	-500.1652526855469	839.1372680664062	573.490234375	-480.8119506835938	1029.181640625	534.8379516601562	-443.7194213867188	648.0706176757812	594.1912231445312	-435.0695495605469	732.1712036132812	628.7987670898438	-506.21826171875	745.6514282226562	599.4273071289062	-259.0541381835938	1620.681030273438	441.0560607910156	-108.3064498901367	1690.581909179688	588.5328369140625	-231.2522583007812	1670.673950195312	603.0731811523438	-126.3525238037109	1648.593017578125	415.5716857910156	-77.01333618164062	942.839599609375	339.7724304199219	-354.360107421875	941.0581665039062	546.7030029296875	-255.8132781982422	961.8971557617188	624.0905151367188	-44.95432662963867	950.9739990234375	459.7630004882812	-121.3229904174805	478.4901733398438	400.2308654785156	-95.80142211914062	620.4965209960938	365.4136657714844	-264.702392578125	48.49893188476562	239.2397308349609	-187.6162872314453	253.6590728759766	302.9672546386719	-133.7522583007812	40.80323028564453	398.4383544921875	-205.3612823486328	43.88413619995117	396.1489868164062	-169.2491149902344	33.32576370239258	289.0034790039062	-355.4900512695312	59.96664428710938	250.8647308349609	-194.6634826660156	514.678466796875	676.460693359375	-284.2257690429688	772.6802368164062	641.1104125976562	-111.9285888671875	34.92020034790039	697.069091796875	-180.7275390625	392.9416809082031	684.9952392578125	1.321817994117737	116.2669830322266	855.2609252929688	13.86451435089111	96.0496826171875	790.2412719726562	-81.26576995849609	75.30361938476562	806.3501586914062	-80.99095916748047	30.8503532409668	631.7783203125	
